# xmcd
#
# Track frame offsets: 
#        225
#        13868
#        27777
#        42919
#        56966
#        73559
#        89629
#        98952
#        106982
#        117741
#        129478
#        138770
#        153498
#        165037
#        175363
#        185959
#        194488
#        205600
#
# Disc length: 2875 seconds
#
# Revision: 0
# Processed by: cddbd v1.5.1PL0 Copyright (c) Steve Scherf et al.
# Submitted via: ExactAudioCopy v0.95a5
#
DISCID=040b3812
DTITLE=Hoyt Axton - Heartbreak Hotel
DYEAR=2003
DGENRE=Country
TTITLE0=Joy To The World
TTITLE1=Lion In The Winter
TTITLE2=Della And The Dealer
TTITLE3=Lonesome Road
TTITLE4=Nashville
TTITLE5=Wild Bull Rider
TTITLE6=Never Gonna Go To Work
TTITLE7=I Love To Sing
TTITLE8=Boney Fingers
TTITLE9=No No Song
TTITLE10=I'll Be There
TTITLE11=Evangelina
TTITLE12=Southbound
TTITLE13=Young Man
TTITLE14=Heartbreak Hotel
TTITLE15=Big Red
TTITLE16=Red White And Blue
TTITLE17=There's A Tiger In The Closet
EXTD=
EXTT0=
EXTT1=
EXTT2=
EXTT3=
EXTT4=
EXTT5=
EXTT6=
EXTT7=
EXTT8=
EXTT9=
EXTT10=
EXTT11=
EXTT12=
EXTT13=
EXTT14=
EXTT15=
EXTT16=
EXTT17=
PLAYORDER=
